HIERARCHY
ROOT Hips
{
  OFFSET 0 0 0
  CHANNELS 6 Xposition Yposition Zposition Zrotation Yrotation Xrotation
  JOINT LeftThigh
  {
    OFFSET 8.409438 0 -5.917753
    CHANNELS 3 Zrotation Yrotation Xrotation
    JOINT LeftLeg
    {
      OFFSET 0 0 -42.358652
      CHANNELS 3 Zrotation Yrotation Xrotation
      JOINT LeftFoot
      {
        OFFSET 0 0 -39.357303
        CHANNELS 3 Zrotation Yrotation Xrotation
      }
    }
  }
  JOINT RightThigh
  {
    OFFSET -8.409438 0 -5.917753
    CHANNELS 3 Zrotation Yrotation Xrotation
    JOINT RightLeg
    {
      OFFSET 0 0 -42.358652
      CHANNELS 3 Zrotation Yrotation Xrotation
      JOINT RightFoot
      {
        OFFSET 0 0 -39.357303
        CHANNELS 3 Zrotation Yrotation Xrotation
      }
    }
  }
  JOINT SpineLow
  {
    OFFSET 0 0 4.719101
    CHANNELS 3 Zrotation Yrotation Xrotation
    JOINT SpineMid
    {
      OFFSET 0 0 12.899191
      CHANNELS 3 Zrotation Yrotation Xrotation
      JOINT Chest
      {
        OFFSET 0 0 12.899191
        CHANNELS 3 Zrotation Yrotation Xrotation
        JOINT LeftShoulder
        {
          OFFSET 7.550562 1.41573 9.438202
          CHANNELS 3 Zrotation Yrotation Xrotation
          JOINT LeftArm
          {
            OFFSET 9.155056 0 4.247191
            CHANNELS 3 Zrotation Yrotation Xrotation
            JOINT LeftForearm
            {
              OFFSET 0 0 25.771955
              CHANNELS 3 Zrotation Yrotation Xrotation
              JOINT LeftHand
              {
                OFFSET 0 0 25.197169
                CHANNELS 3 Zrotation Yrotation Xrotation
              }
            }
          }
        }
        JOINT RightShoulder
        {
          OFFSET -7.550562 1.41573 9.438202
          CHANNELS 3 Zrotation Yrotation Xrotation
          JOINT RightArm
          {
            OFFSET -9.155056 0 4.247191
            CHANNELS 3 Zrotation Yrotation Xrotation
            JOINT RightForearm
            {
              OFFSET 0 0 -25.771955
              CHANNELS 3 Zrotation Yrotation Xrotation
              JOINT RightHand
              {
                OFFSET 0 0 -25.197169
                CHANNELS 3 Zrotation Yrotation Xrotation
              }
            }
          }
        }
        JOINT Neck
        {
          OFFSET 0 0 15.101124
          CHANNELS 3 Zrotation Yrotation Xrotation
          JOINT Head
          {
            OFFSET 0 0 11.325843
            CHANNELS 3 Zrotation Yrotation Xrotation
            End Site
            {
              OFFSET 0 0 14.157303
            }
          }
        }
      }
    }
  }
}
MOTION
Frames: 10
Frame Time: 0.0
0.0  89.887642  0.0  -1.272816  21.685561  -119.038136  -3.55202  -3.934524  -2.874005  -18.551805  17.558264  38.693484  -3.707476  -0.714898  2.929352  -4.877694  1.875266  -48.49848  -2.407675  6.288254  -4.503787  3.170189  -6.785934  -2.602454  -4.448927  -0.213886  4.250938  -12.155055  0.198118  11.613607  -12.155055  0.198118  11.613607  -8.10205  31.841336  7.280858  131.26923  36.419587  -159.611689  -9.539285  10.814883  92.337757  66.518413  -19.176916  35.454242  17.851288  5.29701  33.609801  24.748442  66.035082  -29.959157  -21.533675  -1.44715  -79.623242  86.010517  14.747372  -14.39056  -11.588575  2.063606  2.053276  -8.697538  1.509432  1.579616  
0.0  89.887642  0.0  -1.602685  23.041858  -119.695556  -3.712695  -3.923383  -1.6063  -17.95674  16.972662  38.222654  -4.613623  -0.696176  2.881176  3.282271  14.953091  -55.06438  -14.887708  4.45932  -3.274148  -2.831057  -6.494164  -0.205314  -4.372216  -0.163408  4.345265  -11.936047  0.338624  11.862289  -11.936048  0.338624  11.862289  -10.183122  31.126704  6.054469  131.119911  36.503309  -160.261352  -9.65924  10.328089  92.115618  65.828054  -20.371318  35.176905  15.496828  4.591221  31.938792  31.90428  63.494988  -20.921982  -21.117071  -2.290056  -82.027978  87.580428  12.258172  -15.529115  -12.879978  1.447932  2.345001  -9.665191  1.037083  1.790129  
0.0  89.887642  0.0  -0.873674  19.784229  -119.962551  1.681453  -6.231272  0.039382  -18.792358  17.060678  37.224603  -5.529727  -0.520181  2.5347  9.655572  20.390007  -58.774362  -26.53615  4.434232  -2.272943  -2.464986  -5.945126  1.240813  -3.374889  -0.125405  4.521897  -9.21131  0.287948  12.350011  -9.21131  0.287948  12.350012  -12.684248  29.486516  5.075062  130.861092  36.86755  -160.853874  -10.504507  10.17768  92.204953  65.325952  -21.114861  35.21157  12.134612  3.679533  29.540546  38.199126  59.322431  -12.820736  -20.651922  -2.670231  -84.812484  89.36822  9.872532  -16.764483  -14.63424  0.455576  2.592866  -10.977789  0.27977  1.956884  
0.0  89.887642  0.0  0.245547  16.449702  -120.184615  6.619051  -8.749166  1.394055  -20.591581  17.912166  36.12817  -5.839746  -0.111997  1.851392  12.352016  15.690153  -60.4662  -30.135478  6.83703  -1.545245  -0.126124  -4.770821  1.094507  -2.25524  0.006127  4.664951  -6.137037  0.450261  12.738013  -6.137037  0.450261  12.738013  -15.008131  27.388463  5.24642  131.018009  37.996498  -160.885259  -10.99602  10.344115  93.56552  65.145128  -21.075026  34.431718  8.528904  3.41213  27.094073  42.306691  53.398679  -7.524664  -19.911259  -2.739069  -87.719517  91.014619  7.632769  -17.775546  -16.586818  -0.590925  2.81258  -12.437602  -0.520028  2.095203  
0.0  89.887642  0.0  1.213468  15.735165  -120.416213  6.434515  -9.517996  1.562355  -20.760975  19.306594  36.341298  -5.026284  0.459452  1.535734  8.216806  7.602302  -64.214883  -23.265408  10.130811  3.905338  0.460693  -4.635622  2.532248  -1.595551  0.26099  4.844397  -4.289365  1.02837  13.218776  -4.289365  1.02837  13.218777  -17.337262  24.940545  4.999075  132.130576  39.26221  -160.36454  -11.532018  9.345702  95.512835  62.795651  -20.584226  33.910893  5.233587  3.626945  24.33467  48.193985  46.93197  -2.441081  -20.667919  -2.572877  -90.297383  92.380498  5.131696  -18.620157  -18.21281  -1.587809  2.56091  -13.652374  -1.26857  1.875185  
0.0  89.887642  0.0  1.460684  17.527395  -120.396459  1.594382  -7.343323  1.727917  -18.710482  19.189528  36.694561  -3.75023  0.636411  2.0392  0.506312  -4.649794  -69.900179  -6.018718  13.761004  14.638436  -0.404549  -4.369342  3.051351  -1.416078  0.525294  4.93456  -3.746086  1.716495  13.454783  -3.746086  1.716495  13.454783  -20.752754  22.639875  3.73822  134.791854  40.098257  -159.489355  -11.514586  11.192391  97.258964  61.978738  -20.380761  33.686928  1.995841  3.137054  23.316416  49.739509  42.525581  -0.642536  -18.754184  -3.404954  -93.442325  93.654971  2.302677  -19.588462  -19.743574  -2.332616  2.081235  -14.797904  -1.819003  1.487115  
0.0  89.887642  0.0  1.507567  19.164206  -121.517344  -2.089472  -4.383155  2.741698  -17.027852  17.965541  37.72425  -2.672126  0.636617  2.438728  -4.579408  -16.667591  -75.863567  11.318992  14.507794  29.052394  -1.699624  -3.14592  2.99814  -1.347426  0.653016  4.937648  -3.533491  2.0501  13.459282  -3.533491  2.0501  13.459282  -23.534003  22.039236  4.067961  137.86701  41.482677  -157.715737  -12.31661  14.200817  98.835286  61.426227  -19.90422  34.217394  -1.447488  3.4159  25.772092  51.450599  40.301001  -0.045702  -16.855112  -4.27065  -96.167238  94.893269  -0.322815  -20.605877  -21.006091  -1.978142  2.134356  -15.746334  -1.559217  1.534701  
0.0  89.887642  0.0  1.324295  19.671651  -122.569409  -1.599309  -3.55442  3.927822  -16.754042  16.847816  38.595796  -3.155626  0.06927  2.693209  -5.423254  -22.214896  -78.537595  19.780466  16.402519  39.686848  -2.22585  -2.669828  3.355465  -0.128136  1.019553  4.536145  -0.158066  2.799564  12.400502  -0.158066  2.799563  12.400501  -30.17846  20.346013  10.000547  141.093572  44.166182  -155.342559  -14.878679  16.830112  99.615377  60.339547  -19.017813  36.094743  -10.976828  0.057156  31.501685  55.099602  38.609681  1.584427  -15.727438  -4.773867  -98.179149  96.024975  -2.549107  -21.256194  -25.299864  -2.615304  5.049867  -18.951596  -2.175289  3.685826  
0.0  89.887642  0.0  0.702704  19.601972  -123.324004  1.156078  -4.878572  5.308043  -17.772114  15.884235  38.654828  -5.260479  -0.554784  2.628872  -5.762236  -24.492267  -78.333596  22.332238  20.492579  48.038339  0.900777  -2.863097  3.044549  -1.294826  1.353475  5.000679  -3.246129  3.947428  13.606655  -3.24613  3.947428  13.606655  -25.465281  19.339903  6.832711  144.487306  47.059909  -152.893988  -15.304071  19.23728  101.376164  60.273268  -18.881475  35.54604  -6.196794  -0.444327  29.041356  59.771883  36.254326  4.572997  -15.190528  -4.457377  -99.749007  96.04147  -4.261837  -20.765656  -20.825852  -3.33991  3.712412  -15.595377  -2.635217  2.673209  
0.0  89.887642  0.0  0.297922  18.966201  -124.573736  2.635974  -6.603671  7.101335  -18.010448  15.532865  38.45242  -7.043356  -0.694136  2.364638  -2.828477  -24.261392  -81.013841  24.745657  23.052905  59.703242  2.566286  -2.308271  2.904042  -4.151302  1.094135  5.058552  -11.072878  3.830437  13.606269  -11.072878  3.830437  13.606269  -11.720135  26.085436  1.934374  148.327689  49.842059  -149.927284  -16.413847  20.668838  102.513837  59.195476  -18.782094  35.487965  8.57017  7.353788  28.542728  61.927613  33.332361  6.176568  -13.200245  -2.678125  -101.237996  94.457138  -6.322773  -18.542164  -10.916437  0.400596  1.995453  -8.188705  0.264901  1.50431  
